<mxfile host="app.diagrams.net" modified="2024-01-01T00:00:00.000Z" agent="CompareToUT Documentation" etag="1" version="24.0.0" type="device">
  <diagram name="EV Package Dependencies" id="ev-package">
    <mxGraphModel dx="1200" dy="700" grid="1" gridSize="10" guides="1" tooltips="1" connect="1" arrows="1" fold="1" page="1" pageScale="1" pageWidth="1400" pageHeight="900" math="0" shadow="0">
      <root>
        <mxCell id="0" />
        <mxCell id="1" parent="0" />
        
        <!-- EV Package -->
        <mxCell id="ev-package" value="EV Package" style="rounded=1;whiteSpace=wrap;html=1;fillColor=#E1D5E7;strokeColor=#9673A6;fontColor=#000000;fontStyle=1;" vertex="1" parent="1">
          <mxGeometry x="200" y="50" width="200" height="60" as="geometry" />
        </mxCell>
        
        <!-- Database Tables -->
        <mxCell id="evcharge-table" value="evcharge" style="rounded=1;whiteSpace=wrap;html=1;fillColor=#D5E8D4;strokeColor=#82B366;fontColor=#000000;" vertex="1" parent="1">
          <mxGeometry x="50" y="200" width="120" height="60" as="geometry" />
        </mxCell>
        
        <mxCell id="evdivert-table" value="evdivert" style="rounded=1;whiteSpace=wrap;html=1;fillColor=#D5E8D4;strokeColor=#82B366;fontColor=#000000;" vertex="1" parent="1">
          <mxGeometry x="230" y="200" width="120" height="60" as="geometry" />
        </mxCell>
        
        <mxCell id="scenario2evcharge-table" value="scenario2evcharge" style="rounded=1;whiteSpace=wrap;html=1;fillColor=#D5E8D4;strokeColor=#82B366;fontColor=#000000;" vertex="1" parent="1">
          <mxGeometry x="410" y="200" width="140" height="60" as="geometry" />
        </mxCell>
        
        <mxCell id="scenario2evdivert-table" value="scenario2evdivert" style="rounded=1;whiteSpace=wrap;html=1;fillColor=#D5E8D4;strokeColor=#82B366;fontColor=#000000;" vertex="1" parent="1">
          <mxGeometry x="600" y="200" width="140" height="60" as="geometry" />
        </mxCell>
        
        <!-- Connections with DAO annotations -->
        <mxCell id="connection1" value="" style="endArrow=classic;html=1;rounded=1;exitX=0.2;exitY=1;exitDx=0;exitDy=0;entryX=0.5;entryY=0;entryDx=0;entryDy=0;" edge="1" parent="1" source="ev-package" target="evcharge-table">
          <mxGeometry width="50" height="50" relative="1" as="geometry">
            <mxPoint x="400" y="400" as="sourcePoint" />
            <mxPoint x="450" y="350" as="targetPoint" />
          </mxGeometry>
        </mxCell>
        
        <mxCell id="dao1-label" value="ScenarioDAO&#xa;saveEVChargeForScenario()&#xa;getEVChargesForScenarioID()&#xa;deleteEVChargeFromScenario()" style="edgeLabel;html=1;align=center;verticalAlign=middle;resizable=0;points=[];fontSize=8;fontColor=#333333;" vertex="1" connectable="0" parent="connection1">
          <mxGeometry x="-0.2" y="1" relative="1" as="geometry">
            <mxPoint x="-35" y="5" as="offset" />
          </mxGeometry>
        </mxCell>
        
        <mxCell id="connection2" value="" style="endArrow=classic;html=1;rounded=1;exitX=0.4;exitY=1;exitDx=0;exitDy=0;entryX=0.5;entryY=0;entryDx=0;entryDy=0;" edge="1" parent="1" source="ev-package" target="evdivert-table">
          <mxGeometry width="50" height="50" relative="1" as="geometry">
            <mxPoint x="400" y="400" as="sourcePoint" />
            <mxPoint x="450" y="350" as="targetPoint" />
          </mxGeometry>
        </mxCell>
        
        <mxCell id="dao2-label" value="ScenarioDAO&#xa;saveEVDivertForScenario()&#xa;getEVDivertForScenarioID()&#xa;deleteEVDivertFromScenario()" style="edgeLabel;html=1;align=center;verticalAlign=middle;resizable=0;points=[];fontSize=8;fontColor=#333333;" vertex="1" connectable="0" parent="connection2">
          <mxGeometry x="-0.2" y="1" relative="1" as="geometry">
            <mxPoint x="-5" y="5" as="offset" />
          </mxGeometry>
        </mxCell>
        
        <mxCell id="connection3" value="" style="endArrow=classic;html=1;rounded=1;exitX=0.6;exitY=1;exitDx=0;exitDy=0;entryX=0.5;entryY=0;entryDx=0;entryDy=0;" edge="1" parent="1" source="ev-package" target="scenario2evcharge-table">
          <mxGeometry width="50" height="50" relative="1" as="geometry">
            <mxPoint x="400" y="400" as="sourcePoint" />
            <mxPoint x="450" y="350" as="targetPoint" />
          </mxGeometry>
        </mxCell>
        
        <mxCell id="dao3-label" value="ScenarioDAO&#xa;scenario2evcharge&#xa;junction operations" style="edgeLabel;html=1;align=center;verticalAlign=middle;resizable=0;points=[];fontSize=8;fontColor=#333333;" vertex="1" connectable="0" parent="connection3">
          <mxGeometry x="-0.2" y="1" relative="1" as="geometry">
            <mxPoint x="15" y="5" as="offset" />
          </mxGeometry>
        </mxCell>
        
        <mxCell id="connection4" value="" style="endArrow=classic;html=1;rounded=1;exitX=0.8;exitY=1;exitDx=0;exitDy=0;entryX=0.5;entryY=0;entryDx=0;entryDy=0;" edge="1" parent="1" source="ev-package" target="scenario2evdivert-table">
          <mxGeometry width="50" height="50" relative="1" as="geometry">
            <mxPoint x="400" y="400" as="sourcePoint" />
            <mxPoint x="450" y="350" as="targetPoint" />
          </mxGeometry>
        </mxCell>
        
        <mxCell id="dao4-label" value="ScenarioDAO&#xa;scenario2evdivert&#xa;junction operations" style="edgeLabel;html=1;align=center;verticalAlign=middle;resizable=0;points=[];fontSize=8;fontColor=#333333;" vertex="1" connectable="0" parent="connection4">
          <mxGeometry x="-0.2" y="1" relative="1" as="geometry">
            <mxPoint x="25" y="5" as="offset" />
          </mxGeometry>
        </mxCell>
        
        <!-- Includes note -->
        <mxCell id="note" value="Includes:&#xa;• EVScheduleActivity &amp; Fragment&#xa;• EVDivertActivity &amp; Fragment&#xa;• EV charging configuration&#xa;• EV surplus energy diversion" style="rounded=1;whiteSpace=wrap;html=1;fillColor=#FFF2CC;strokeColor=#D6B656;fontColor=#000000;fontStyle=2;" vertex="1" parent="1">
          <mxGeometry x="800" y="50" width="220" height="100" as="geometry" />
        </mxCell>
        
      </root>
    </mxGraphModel>
  </diagram>
</mxfile>